<svg xmlns="http://www.w3.org/2000/svg" viewBox="0 0 3021.52853 727"><g id="Layer_2" data-name="Layer 2"><g id="Layer_1-2" data-name="Layer 1"><path d="M1458.55189,711V203.88888H1602.184V711Zm285.31-365.92177a57.50351,57.50351,0,0,0-23.69245-14.65633q-14.41011-4.87763-32.9787-4.88544-40.557,0-62.776,26.13712-22.23072,26.141-22.23072,72.55081l-10.25944-131.909q21.00546-44.94218,54.47076-70.3504,33.46333-25.3965,73.5318-25.40432,31.75149,0,57.39812,10.01517a125.48028,125.48028,0,0,1,44.70377,29.55694Z" style="fill:#fff"/><path d="M2045.08478,727q-104.55243,0-161.70822-57.89447-57.1597-57.89253-57.1597-162.92763v-82.566q0-104.06,57.1597-161.21968t161.70822-57.1597q104.5407,0,161.70822,57.1597,57.1597,57.15971,57.15971,161.21968v84.0316q0,104.55243-57.15971,161.95054Q2149.63329,727.00587,2045.08478,727Zm-.48854-128.97574q40.54528,0,63.02223-23.69636,22.46523-23.69051,22.47305-66.68437v-84.0316q0-42.50337-22.47305-65.95351-22.47694-23.45013-63.02223-23.45013-40.06457,0-62.28747,23.45013-22.23659,23.45015-22.23073,65.95351v84.0316q0,42.99582,22.23073,66.68437Q2004.53364,598.03012,2044.59624,598.02426Z" style="fill:#fff"/><path d="M2447.97732,710,2291.64309,202.88888h128.48719l89.89219,313.159,106.99124-313.159h79.1442l106.99124,313.159,89.89219-313.159h128.48719L2865.1943,710h-99.66307L2656.58581,379.25344,2547.64039,710Z" style="fill:#fff"/><path d="M1117.40817,320.48518h246.22641V459.23181q0,80.1291-32.24394,139.968-32.24392,59.8506-90.1345,92.8254Q1183.35776,724.9961,1105.19455,725q-78.66346,0-137.52331-31.02062-58.87743-31.02159-91.36173-87.45142-32.49015-56.42688-32.48625-131.66273V265.27965q0-80.11738,32.24393-139.72372,32.24394-59.59852,90.13451-92.57918Q1024.10008,0,1102.26329,0q64.48786,0,117.4969,26.3814a252.11535,252.11535,0,0,1,89.15741,73.77022q36.14838,47.39273,48.85445,110.89959H1213.16288q-10.75188-34.68274-42.74959-53.49562a132.37035,132.37035,0,0,0-68.15-18.809q-54.22843,0-86.96092,34.68666-32.73639,34.69448-32.73248,91.84636V474.86523q0,50.324,33.70957,80.85411,33.70956,30.53793,88.91509,30.534,54.22843,0,86.96092-32.97675,32.72466-32.97675,32.73248-92.09064V449.46092H1117.40817Z" style="fill:#fff"/><path d="M367.08861,595.86174c0-31.24059-1.23234-60.21109.51312-89.0347.89042-14.70467,15.0142-21.59893,29.42488-26.81222,18.8281-6.81146,38.41659-12.797,55.617-22.21082,39.38487-21.55568,61.58758-54.07155,66.96875-95.57049,2.28126-17.59305.30057-19.36907-18.91487-18.85164-62.80176,1.691-111.38458,38.14718-133.3389,102.03511,0-29.39449-.32877-56.14364.374-82.8707.09913-3.76943,4.94776-7.64217,8.08159-11.11047,48.58637-53.7721,41.82626-131.77729-15.10577-178.22025-7.53581-6.14755-12.531-6.63758-20.46416-.39921-58.28064,45.83033-65.71852,122.85436-17.46148,177.71893a40.40648,40.40648,0,0,1,9.2892,23.20023c1.23365,22.42771.432,44.94683.432,66.55665-6.54135-12.01783-12.38728-25.59513-20.81234-37.70834C285.763,365.30531,248.03241,345.78,199.13525,343.10267c-14.86643-.81393-18.26592,4.272-17.235,16.51214,3.9794,47.24753,30.56243,81.09232,75.35053,103.62881,14.53544,7.31388,30.76821,11.95678,46.42235,17.3534,20.25362,6.98213,28.89916,17.75563,28.88679,37.3668-.01358,21.64414-.49585,43.29469-.03081,64.92938.2048,9.52883-3.561,13.36994-14.18282,12.98406-13.23164-.48084-26.50565.09815-39.75577-.09614-27.46771-.40291-46.55774,10.36772-57.42083,33.46971-8.9484,19.03032-19.16363,37.57509-28.07684,56.61807-7.278,15.54912-20.14679,22.60412-38.158,22.664-42.8198.14235-85.64181.25636-128.46026.0054C3.15581,708.40168-5.00169,697.05071,2.96933,676.504q78.753-202.99944,157.587-405.97314,37.84044-97.58976,75.37639-195.27614c10.75686-27.83056,20.27891-33.98157,52.61621-34.02087q60.40753-.07349,120.8152.0285c25.76692.0366,36.0565,6.42027,44.68692,27.91835Q575.28644,371.17445,696.43279,673.19753c9.58721,23.90428.8879,35.208-27.33885,35.33334-41.29022.183-82.58306-.09934-123.873.11148-21.0976.10777-35.85048-7.349-44.05814-25.67836-8.39075-18.73839-18.335-36.904-27.28807-55.44306-10.31436-21.35793-28.209-31.81-53.916-31.67572C403.20434,595.93258,386.44892,595.86174,367.08861,595.86174Z" style="fill:#e7aa4d"/></g></g></svg>