<svg xmlns="http://www.w3.org/2000/svg" viewBox="0 0 1058.02237 1008.60975"><g id="Layer_2" data-name="Layer 2"><g id="Layer_1-2" data-name="Layer 1"><path d="M554.69692,838.12378c0-47.20675-1.86216-90.98323.77536-134.53774,1.34548-22.2198,22.68752-32.63753,44.46308-40.51517,28.45059-10.2926,58.05019-19.3372,84.04127-33.56212,59.51332-32.57216,93.0632-81.706,101.19452-144.41379,3.44715-26.58434.45418-29.268-28.5817-28.48616-94.89792,2.55525-168.31,57.64309-201.48454,154.18229,0-44.41718-.49678-84.837.56519-125.22351.1498-5.69588,7.47642-11.54786,12.21186-16.78871,73.41744-81.25346,63.20244-199.12482-22.82589-269.30343-11.38714-9.28938-18.93528-10.02985-30.9228-.60323-88.06617,69.25287-99.30535,185.64164-26.38554,268.5459,8.19021,9.31155,13.37815,23.08641,14.03664,35.05719,1.86414,33.88986.65272,67.91784.65272,100.57181-9.88445-18.1598-18.71806-38.67606-31.44892-56.98-39.18-56.33048-96.19361-85.83464-170.08068-89.88024-22.46424-1.2299-27.60112,6.45533-26.04335,24.951,6.01316,71.39437,46.182,122.53624,113.86,156.59048,21.96407,11.05179,46.493,18.06754,70.14745,26.22221,30.60466,10.5505,43.66868,26.83,43.65,56.46389-.02052,32.70583-.74926,65.42134-.04655,98.1129.30947,14.39873-5.381,20.20292-21.43125,19.61982-19.99394-.72657-40.05191.14832-60.07378-.14526-41.50566-.60884-70.35205,15.66635-86.767,50.57509-13.52167,28.75618-28.95761,56.77864-42.42609,85.55392-10.99762,23.49583-30.44323,34.15643-57.65941,34.2469-64.70376.2151-129.41086.38738-194.11257.00816C4.76866,1008.1796-7.55791,991.02748,4.48687,959.98Q123.48822,653.23342,242.612,346.52577q57.17958-147.465,113.89906-295.07609C372.76546,9.39572,387.154.10112,436.01791.04174Q527.298-.06932,618.57824.08481c38.93563.0553,54.48392,9.70147,67.52509,42.1866q183.19528,456.33395,366.256,912.71223c14.48694,36.12106,1.34168,53.20182-41.31094,53.39118-62.39246.27651-124.78886-.15011-187.18089.16845-31.88.16285-54.17262-11.1048-66.575-38.80182-12.679-28.315-27.7055-55.76459-41.23421-83.77839-15.58574-32.27334-42.62575-48.06712-81.471-47.86426C609.27034,838.23081,583.95172,838.12378,554.69692,838.12378Z" style="fill:#e7aa4d"/></g></g></svg>